#!OML:ASF E:\emotionWalksFemale\Project 1\Capture day 1\Session 1\Female1.ASF
:FULLY-SPECIFIED
:DEGREES
1979
root 8.78216 14.9868 -37.5819 -180.337 -180.56 -182.838
lowerback 11.3234 0.53841 1.20304
upperback -4.38432 0.979163 0.60634
thorax -11.1172 0.40806 -0.22495
lowerneck -3.59242 -2.99649 -2.46333
upperneck 11.4377 -4.14412 2.57995
head 4.54904 -2.02696 1.09843
rclavicle 1.04362e-015 2.78299e-015
rhumerus -40.9551 3.64105 -85.133
rradius 36.5075
rwrist 19.11
rhand 178.271 -233.595
rfingers 7.12502
rthumb -156.066 -262.124
lclavicle 1.04362e-015 2.78299e-015
lhumerus -47.0659 -2.49623 83.6772
lradius 45.8388
lwrist -8.19415
lhand -0.641388 -34.3623
lfingers 7.12502
lthumb 24.9759 -5.97475
rfemur -1.07746 3.24723 36.7605
rtibia 24.3355
rfoot -22.3839 -21.9523
rtoes 14.7046
lfemur -37.1748 -14.6412 -11.9936
ltibia 32.3633
lfoot -7.69493 12.7112
ltoes -19.5383
1980
root 8.77997 14.9899 -37.5652 -180.347 -180.485 -182.897
lowerback 11.0368 0.594137 1.26352
upperback -4.21847 1.05323 0.583067
thorax -10.7578 0.441444 -0.295189
lowerneck -3.70749 -3.01553 -2.3087
upperneck 11.3464 -4.17784 2.58198
head 4.53519 -2.03605 1.06837
rclavicle 1.86361e-015 2.78299e-015
rhumerus -40.6414 3.39673 -85.1288
rradius 36.3908
rwrist 19.1267
rhand 177.87 -233.046
rfingers 7.12502
rthumb -156.451 -261.624
lclavicle 1.86361e-015 2.78299e-015
lhumerus -46.8735 -2.68699 83.754
lradius 45.8514
lwrist -8.07587
lhand -1.14439 -34.8726
lfingers 7.12502
lthumb 24.4938 -6.4189
rfemur -1.00743 3.08318 36.7971
rtibia 24.3685
rfoot -22.4031 -21.7955
rtoes 14.2504
lfemur -37.0556 -14.659 -11.9349
ltibia 32.1282
lfoot -7.75274 12.9228
ltoes -22.2714
1981
root 8.7774 14.9923 -37.5407 -180.361 -180.341 -182.907
lowerback 11.0642 0.647501 1.34889
upperback -4.28827 1.13268 0.51303
thorax -10.848 0.469611 -0.43564
lowerneck -3.75867 -3.03854 -2.17175
upperneck 11.5426 -4.21798 2.53078
head 4.61264 -2.05129 1.02332
rclavicle 2.51214e-014 7.95139e-016
rhumerus -40.8037 3.1245 -85.1815
rradius 36.4133
rwrist 19.1869
rhand 177.637 -232.292
rfingers 7.12502
rthumb -156.675 -260.899
lclavicle 2.51214e-014 7.95139e-016
lhumerus -46.9818 -2.82028 83.7518
lradius 45.8092
lwrist -7.9795
lhand -1.38784 -35.0118
lfingers 7.12502
lthumb 24.2604 -6.5267
rfemur -0.894929 3.03085 36.7962
rtibia 24.419
rfoot -22.5057 -21.7124
rtoes 13.5312
lfemur -36.9169 -14.7784 -11.8462
ltibia 31.9167
lfoot -7.85705 13.2446
ltoes -21.188
1982
root 8.77618 14.9877 -37.5164 -180.398 -180.235 -182.884
lowerback 11.0648 0.672293 1.39225
upperback -4.31236 1.16641 0.447398
thorax -10.8725 0.479611 -0.537926
lowerneck -3.73817 -3.03672 -2.13399
upperneck 11.6599 -4.22829 2.58691
head 4.65252 -2.0517 1.03519
rclavicle -1.51946e-014 -6.55989e-015
rhumerus -40.9449 2.93894 -85.2678
rradius 36.5485
rwrist 19.1374
rhand 177.783 -232.17
rfingers 7.12502
rthumb -156.535 -260.759
lclavicle -1.51946e-014 -6.55989e-015
lhumerus -46.9213 -2.84004 83.7267
lradius 45.6059
lwrist -7.98591
lhand -1.429 -34.76
lfingers 7.12502
lthumb 24.221 -6.26964
rfemur -0.743826 2.92812 36.7491
rtibia 24.4153
rfoot -22.6268 -21.6796
rtoes 12.4664
lfemur -36.8497 -14.9837 -11.7762
ltibia 31.7659
lfoot -7.89639 13.5587
ltoes -19.6946
1983
root 8.77638 14.9804 -37.494 -180.404 -180.137 -182.885
lowerback 11.0976 0.675782 1.42616
upperback -4.33343 1.17395 0.414319
thorax -10.9142 0.478924 -0.594955
lowerneck -3.62755 -3.00393 -2.12515
upperneck 11.6287 -4.19511 2.66854
head 4.62006 -2.03208 1.06474
rclavicle 3.6154e-015 1.5704e-014
rhumerus -40.9852 2.9199 -85.3855
rradius 36.5907
rwrist 19.1514
rhand 178.008 -232.607
rfingers 7.12502
rthumb -156.319 -261.168
lclavicle 3.6154e-015 1.5704e-014
lhumerus -46.8104 -2.83265 83.7449
lradius 45.6068
lwrist -7.49455
lhand -0.503799 -33.9246
lfingers 7.12502
lthumb 25.1077 -5.55535
rfemur -0.66277 2.75587 36.6937
rtibia 24.4468
rfoot -22.7974 -21.4424
rtoes 12.1783
lfemur -36.8211 -15.1521 -11.6794
ltibia 31.5707
lfoot -7.98002 13.7703
ltoes -17.9914
1984
root 8.77592 14.9778 -37.4726 -180.412 -180.025 -182.91
lowerback 11.599 0.636467 1.48637
upperback -4.60216 1.14498 0.41302
thorax -11.5168 0.453411 -0.633902
lowerneck -3.48132 -2.93565 -2.18249
upperneck 11.8027 -4.10916 2.70172
head 4.6546 -1.99136 1.09259
rclavicle 1.03865e-014 1.41137e-014
rhumerus -41.3478 3.04812 -85.5164
rradius 36.5371
rwrist 19.2896
rhand 178.051 -232.675
rfingers 7.12502
rthumb -156.277 -261.231
lclavicle 1.03865e-014 1.41137e-014
lhumerus -47.1964 -2.71357 83.7466
lradius 45.5224
lwrist -7.63898
lhand -0.606714 -34.0644
lfingers 7.12502
lthumb 25.0091 -5.68142
rfemur -0.575772 2.72617 36.6861
rtibia 24.5065
rfoot -22.9382 -21.1861
rtoes 12.5758
lfemur -36.762 -15.3376 -11.5343
ltibia 31.3621
lfoot -8.18972 14
ltoes -15.2768
1985
root 8.77403 14.9784 -37.453 -180.449 -179.971 -182.931
lowerback 11.5605 0.614252 1.41059
upperback -4.53332 1.11121 0.509844
thorax -11.42 0.448572 -0.477861
lowerneck -3.51328 -2.87263 -2.33668
upperneck 11.7492 -4.01261 2.72437
head 4.64382 -1.94949 1.13277
rclavicle -1.98163e-014 -5.36719e-015
rhumerus -41.2105 3.21899 -85.4706
rradius 36.4468
rwrist 19.2215
rhand 177.868 -232.445
rfingers 7.12502
rthumb -156.453 -261.024
lclavicle -1.98163e-014 -5.36719e-015
lhumerus -47.0858 -2.38132 83.8059
lradius 45.3522
lwrist -7.88932
lhand -0.727525 -34.2485
lfingers 7.12502
lthumb 24.8934 -5.84945
rfemur -0.480784 2.7398 36.7063
rtibia 24.6073
rfoot -23.017 -21.0319
rtoes 12.9164
lfemur -36.644 -15.5013 -11.4431
ltibia 31.1133
lfoot -8.28297 14.2658
ltoes -15.2289
